<?xml version="1.0" encoding="UTF-8" standalone="no"?>
<!DOCTYPE svg PUBLIC "-//W3C//DTD SVG 1.1//EN"
 "http://www.w3.org/Graphics/SVG/1.1/DTD/svg11.dtd">
<!-- Generated by graphviz version 2.42.4 (0)
 -->
<!-- Title: G Pages: 1 -->
<svg width="962pt" height="144pt"
 viewBox="0.00 0.00 962.00 144.00" xmlns="http://www.w3.org/2000/svg" xmlns:xlink="http://www.w3.org/1999/xlink">
<g id="graph0" class="graph" transform="scale(1 1) rotate(0) translate(18 126)">
<title>G</title>
<polygon fill="#06131d" stroke="transparent" points="-18,18 -18,-126 944,-126 944,18 -18,18"/>
<!-- new -->
<g id="node1" class="node">
<title>new</title>
<path fill="#0b2633" stroke="#2c6978" stroke-width="1.2" d="M99,-71C99,-71 12,-71 12,-71 6,-71 0,-65 0,-59 0,-59 0,-47 0,-47 0,-41 6,-35 12,-35 12,-35 99,-35 99,-35 105,-35 111,-41 111,-47 111,-47 111,-59 111,-59 111,-65 105,-71 99,-71"/>
<text text-anchor="middle" x="55.5" y="-50.2" font-family="DejaVu Sans" font-size="11.00" fill="#e9f7f8">Unresolved item</text>
</g>
<!-- classify -->
<g id="node2" class="node">
<title>classify</title>
<path fill="#0b2633" stroke="#2c6978" stroke-width="1.2" d="M310,-71C310,-71 172,-71 172,-71 166,-71 160,-65 160,-59 160,-59 160,-47 160,-47 160,-41 166,-35 172,-35 172,-35 310,-35 310,-35 316,-35 322,-41 322,-47 322,-47 322,-59 322,-59 322,-65 316,-71 310,-71"/>
<text text-anchor="middle" x="241" y="-50.2" font-family="DejaVu Sans" font-size="11.00" fill="#e9f7f8">Applicability classification</text>
</g>
<!-- new&#45;&gt;classify -->
<g id="edge1" class="edge">
<title>new&#45;&gt;classify</title>
<path fill="none" stroke="#45d6df" stroke-width="1.3" d="M111.06,-53C124.1,-53 138.36,-53 152.47,-53"/>
<polygon fill="#45d6df" stroke="#45d6df" stroke-width="1.3" points="152.84,-55.45 159.84,-53 152.84,-50.55 152.84,-55.45"/>
</g>
<!-- domain -->
<g id="node3" class="node">
<title>domain</title>
<path fill="#0b2633" stroke="#45d6df" stroke-width="1.2" d="M710,-108C710,-108 533,-108 533,-108 527,-108 521,-102 521,-96 521,-96 521,-82 521,-82 521,-76 527,-70 533,-70 533,-70 710,-70 710,-70 716,-70 722,-76 722,-82 722,-82 722,-96 722,-96 722,-102 716,-108 710,-108"/>
<text text-anchor="middle" x="621.5" y="-92.2" font-family="DejaVu Sans" font-size="11.00" fill="#e9f7f8">Everything We Still Do Not Know</text>
<text text-anchor="middle" x="621.5" y="-80.2" font-family="DejaVu Sans" font-size="11.00" fill="#e9f7f8">ranked by decision value</text>
</g>
<!-- classify&#45;&gt;domain -->
<g id="edge2" class="edge">
<title>classify&#45;&gt;domain</title>
<path fill="none" stroke="#45d6df" stroke-width="1.3" d="M322.27,-60.63C377.95,-65.93 452.71,-73.04 513.45,-78.82"/>
<polygon fill="#45d6df" stroke="#45d6df" stroke-width="1.3" points="513.59,-81.29 520.79,-79.52 514.05,-76.41 513.59,-81.29"/>
<text text-anchor="middle" x="421.5" y="-78.8" font-family="DejaVu Sans" font-size="9.00" fill="#a9d9de">investment uncertainty</text>
</g>
<!-- pipeline -->
<g id="node4" class="node">
<title>pipeline</title>
<path fill="#0b2633" stroke="#d5a941" stroke-width="1.2" d="M704.5,-38C704.5,-38 538.5,-38 538.5,-38 532.5,-38 526.5,-32 526.5,-26 526.5,-26 526.5,-12 526.5,-12 526.5,-6 532.5,0 538.5,0 538.5,0 704.5,0 704.5,0 710.5,0 716.5,-6 716.5,-12 716.5,-12 716.5,-26 716.5,-26 716.5,-32 710.5,-38 704.5,-38"/>
<text text-anchor="middle" x="621.5" y="-22.2" font-family="DejaVu Sans" font-size="11.00" fill="#e9f7f8">Compiler Review</text>
<text text-anchor="middle" x="621.5" y="-10.2" font-family="DejaVu Sans" font-size="11.00" fill="#e9f7f8">fix, rebind or declare coverage</text>
</g>
<!-- classify&#45;&gt;pipeline -->
<g id="edge3" class="edge">
<title>classify&#45;&gt;pipeline</title>
<path fill="none" stroke="#45d6df" stroke-width="1.3" d="M322.17,-36.43C330.19,-35.12 338.24,-33.94 346,-33 403.01,-26.1 467.08,-22.59 518.97,-20.81"/>
<polygon fill="#45d6df" stroke="#45d6df" stroke-width="1.3" points="519.3,-23.25 526.21,-20.57 519.13,-18.36 519.3,-23.25"/>
<text text-anchor="middle" x="421.5" y="-35.8" font-family="DejaVu Sans" font-size="9.00" fill="#a9d9de">extraction / mapping uncertainty</text>
</g>
<!-- work -->
<g id="node5" class="node">
<title>work</title>
<path fill="#0b2633" stroke="#2c6978" stroke-width="1.2" d="M907,-107C907,-107 877,-107 877,-107 871,-107 865,-101 865,-95 865,-95 865,-83 865,-83 865,-77 871,-71 877,-71 877,-71 907,-71 907,-71 913,-71 919,-77 919,-83 919,-83 919,-95 919,-95 919,-101 913,-107 907,-107"/>
<text text-anchor="middle" x="892" y="-86.2" font-family="DejaVu Sans" font-size="11.00" fill="#e9f7f8">work</text>
</g>
<!-- domain&#45;&gt;work -->
<g id="edge4" class="edge">
<title>domain&#45;&gt;work</title>
<path fill="none" stroke="#45d6df" stroke-width="1.3" d="M722.1,-89C769.83,-89 823.83,-89 857.65,-89"/>
<polygon fill="#45d6df" stroke="#45d6df" stroke-width="1.3" points="857.96,-91.45 864.96,-89 857.96,-86.55 857.96,-91.45"/>
<text text-anchor="middle" x="790" y="-91.8" font-family="DejaVu Sans" font-size="9.00" fill="#a9d9de">closure work</text>
</g>
<!-- compiler -->
<g id="node6" class="node">
<title>compiler</title>
<path fill="#0b2633" stroke="#2c6978" stroke-width="1.2" d="M914,-37C914,-37 870,-37 870,-37 864,-37 858,-31 858,-25 858,-25 858,-13 858,-13 858,-7 864,-1 870,-1 870,-1 914,-1 914,-1 920,-1 926,-7 926,-13 926,-13 926,-25 926,-25 926,-31 920,-37 914,-37"/>
<text text-anchor="middle" x="892" y="-16.2" font-family="DejaVu Sans" font-size="11.00" fill="#e9f7f8">compiler</text>
</g>
<!-- pipeline&#45;&gt;compiler -->
<g id="edge5" class="edge">
<title>pipeline&#45;&gt;compiler</title>
<path fill="none" stroke="#45d6df" stroke-width="1.3" d="M716.79,-19C762.63,-19 815.32,-19 850.65,-19"/>
<polygon fill="#45d6df" stroke="#45d6df" stroke-width="1.3" points="850.91,-21.45 857.91,-19 850.91,-16.55 850.91,-21.45"/>
<text text-anchor="middle" x="790" y="-21.8" font-family="DejaVu Sans" font-size="9.00" fill="#a9d9de">compiler correction</text>
</g>
</g>
</svg>
