<?xml version="1.0" encoding="UTF-8" standalone="no"?>
<!DOCTYPE svg PUBLIC "-//W3C//DTD SVG 1.1//EN"
 "http://www.w3.org/Graphics/SVG/1.1/DTD/svg11.dtd">
<!-- Generated by graphviz version 2.42.4 (0)
 -->
<!-- Title: G Pages: 1 -->
<svg width="293pt" height="584pt"
 viewBox="0.00 0.00 293.00 584.00" xmlns="http://www.w3.org/2000/svg" xmlns:xlink="http://www.w3.org/1999/xlink">
<g id="graph0" class="graph" transform="scale(1 1) rotate(0) translate(18 566)">
<title>G</title>
<!-- kernel -->
<g id="node1" class="node">
<title>kernel</title>
<path fill="#13202c" stroke="#446074" d="M194,-548C194,-548 63,-548 63,-548 57,-548 51,-542 51,-536 51,-536 51,-516 51,-516 51,-510 57,-504 63,-504 63,-504 194,-504 194,-504 200,-504 206,-510 206,-516 206,-516 206,-536 206,-536 206,-542 200,-548 194,-548"/>
<text text-anchor="middle" x="128.5" y="-529.4" font-family="Arial" font-size="12.00" fill="#e9f1f5">Universal PANTA kernel</text>
<text text-anchor="middle" x="128.5" y="-516.4" font-family="Arial" font-size="12.00" fill="#e9f1f5">Live Investment Case</text>
</g>
<!-- archetype -->
<g id="node2" class="node">
<title>archetype</title>
<path fill="#13202c" stroke="#446074" d="M197.5,-464C197.5,-464 59.5,-464 59.5,-464 53.5,-464 47.5,-458 47.5,-452 47.5,-452 47.5,-432 47.5,-432 47.5,-426 53.5,-420 59.5,-420 59.5,-420 197.5,-420 197.5,-420 203.5,-420 209.5,-426 209.5,-432 209.5,-432 209.5,-452 209.5,-452 209.5,-458 203.5,-464 197.5,-464"/>
<text text-anchor="middle" x="128.5" y="-445.4" font-family="Arial" font-size="12.00" fill="#e9f1f5">Deal archetype</text>
<text text-anchor="middle" x="128.5" y="-432.4" font-family="Arial" font-size="12.00" fill="#e9f1f5">Venture / Buyout / Growth</text>
</g>
<!-- kernel&#45;&gt;archetype -->
<g id="edge1" class="edge">
<title>kernel&#45;&gt;archetype</title>
<path fill="none" stroke="#73bfd6" stroke-width="1.4" d="M128.5,-503.88C128.5,-493.94 128.5,-481.93 128.5,-471.21"/>
<polygon fill="#73bfd6" stroke="#73bfd6" stroke-width="1.4" points="130.95,-471.05 128.5,-464.05 126.05,-471.05 130.95,-471.05"/>
</g>
<!-- stage -->
<g id="node3" class="node">
<title>stage</title>
<path fill="#13202c" stroke="#446074" d="M177.5,-380C177.5,-380 79.5,-380 79.5,-380 73.5,-380 67.5,-374 67.5,-368 67.5,-368 67.5,-348 67.5,-348 67.5,-342 73.5,-336 79.5,-336 79.5,-336 177.5,-336 177.5,-336 183.5,-336 189.5,-342 189.5,-348 189.5,-348 189.5,-368 189.5,-368 189.5,-374 183.5,-380 177.5,-380"/>
<text text-anchor="middle" x="128.5" y="-361.4" font-family="Arial" font-size="12.00" fill="#e9f1f5">Stage overlay</text>
<text text-anchor="middle" x="128.5" y="-348.4" font-family="Arial" font-size="12.00" fill="#e9f1f5">Pre&#45;revenue seed</text>
</g>
<!-- archetype&#45;&gt;stage -->
<g id="edge2" class="edge">
<title>archetype&#45;&gt;stage</title>
<path fill="none" stroke="#73bfd6" stroke-width="1.4" d="M128.5,-419.88C128.5,-409.94 128.5,-397.93 128.5,-387.21"/>
<polygon fill="#73bfd6" stroke="#73bfd6" stroke-width="1.4" points="130.95,-387.05 128.5,-380.05 126.05,-387.05 130.95,-387.05"/>
</g>
<!-- sector -->
<g id="node4" class="node">
<title>sector</title>
<path fill="#13202c" stroke="#446074" d="M204,-296C204,-296 53,-296 53,-296 47,-296 41,-290 41,-284 41,-284 41,-264 41,-264 41,-258 47,-252 53,-252 53,-252 204,-252 204,-252 210,-252 216,-258 216,-264 216,-264 216,-284 216,-284 216,-290 210,-296 204,-296"/>
<text text-anchor="middle" x="128.5" y="-277.4" font-family="Arial" font-size="12.00" fill="#e9f1f5">Sector overlay</text>
<text text-anchor="middle" x="128.5" y="-264.4" font-family="Arial" font-size="12.00" fill="#e9f1f5">Deep&#45;tech maritime security</text>
</g>
<!-- stage&#45;&gt;sector -->
<g id="edge3" class="edge">
<title>stage&#45;&gt;sector</title>
<path fill="none" stroke="#73bfd6" stroke-width="1.4" d="M128.5,-335.88C128.5,-325.94 128.5,-313.93 128.5,-303.21"/>
<polygon fill="#73bfd6" stroke="#73bfd6" stroke-width="1.4" points="130.95,-303.05 128.5,-296.05 126.05,-303.05 130.95,-303.05"/>
</g>
<!-- lens -->
<g id="node5" class="node">
<title>lens</title>
<path fill="#13202c" stroke="#446074" d="M217,-212C217,-212 40,-212 40,-212 34,-212 28,-206 28,-200 28,-200 28,-180 28,-180 28,-174 34,-168 40,-168 40,-168 217,-168 217,-168 223,-168 229,-174 229,-180 229,-180 229,-200 229,-200 229,-206 223,-212 217,-212"/>
<text text-anchor="middle" x="128.5" y="-193.4" font-family="Arial" font-size="12.00" fill="#e9f1f5">Fund Lens</text>
<text text-anchor="middle" x="128.5" y="-180.4" font-family="Arial" font-size="12.00" fill="#e9f1f5">Policies, gates, authority, ranking</text>
</g>
<!-- sector&#45;&gt;lens -->
<g id="edge4" class="edge">
<title>sector&#45;&gt;lens</title>
<path fill="none" stroke="#73bfd6" stroke-width="1.4" d="M128.5,-251.88C128.5,-241.94 128.5,-229.93 128.5,-219.21"/>
<polygon fill="#73bfd6" stroke="#73bfd6" stroke-width="1.4" points="130.95,-219.05 128.5,-212.05 126.05,-219.05 130.95,-219.05"/>
</g>
<!-- deal -->
<g id="node6" class="node">
<title>deal</title>
<path fill="#13202c" stroke="#446074" d="M193.5,-128C193.5,-128 63.5,-128 63.5,-128 57.5,-128 51.5,-122 51.5,-116 51.5,-116 51.5,-96 51.5,-96 51.5,-90 57.5,-84 63.5,-84 63.5,-84 193.5,-84 193.5,-84 199.5,-84 205.5,-90 205.5,-96 205.5,-96 205.5,-116 205.5,-116 205.5,-122 199.5,-128 193.5,-128"/>
<text text-anchor="middle" x="128.5" y="-109.4" font-family="Arial" font-size="12.00" fill="#e9f1f5">Deal instance</text>
<text text-anchor="middle" x="128.5" y="-96.4" font-family="Arial" font-size="12.00" fill="#e9f1f5">Synthetic Project Tethys</text>
</g>
<!-- lens&#45;&gt;deal -->
<g id="edge5" class="edge">
<title>lens&#45;&gt;deal</title>
<path fill="none" stroke="#73bfd6" stroke-width="1.4" d="M128.5,-167.88C128.5,-157.94 128.5,-145.93 128.5,-135.21"/>
<polygon fill="#73bfd6" stroke="#73bfd6" stroke-width="1.4" points="130.95,-135.05 128.5,-128.05 126.05,-135.05 130.95,-135.05"/>
</g>
<!-- spine -->
<g id="node7" class="node">
<title>spine</title>
<path fill="#13202c" stroke="#446074" d="M245,-44C245,-44 12,-44 12,-44 6,-44 0,-38 0,-32 0,-32 0,-12 0,-12 0,-6 6,0 12,0 12,0 245,0 245,0 251,0 257,-6 257,-12 257,-12 257,-32 257,-32 257,-38 251,-44 245,-44"/>
<text text-anchor="middle" x="128.5" y="-25.4" font-family="Arial" font-size="12.00" fill="#e9f1f5">Governed question spine</text>
<text text-anchor="middle" x="128.5" y="-12.4" font-family="Arial" font-size="12.00" fill="#e9f1f5">Nine venture questions + admitted changes</text>
</g>
<!-- deal&#45;&gt;spine -->
<g id="edge6" class="edge">
<title>deal&#45;&gt;spine</title>
<path fill="none" stroke="#73bfd6" stroke-width="1.4" d="M128.5,-83.88C128.5,-73.94 128.5,-61.93 128.5,-51.21"/>
<polygon fill="#73bfd6" stroke="#73bfd6" stroke-width="1.4" points="130.95,-51.05 128.5,-44.05 126.05,-51.05 130.95,-51.05"/>
</g>
</g>
</svg>
