<?xml version="1.0" encoding="UTF-8" standalone="no"?>
<!DOCTYPE svg PUBLIC "-//W3C//DTD SVG 1.1//EN"
 "http://www.w3.org/Graphics/SVG/1.1/DTD/svg11.dtd">
<!-- Generated by graphviz version 2.42.4 (0)
 -->
<!-- Title: G Pages: 1 -->
<svg width="545pt" height="460pt"
 viewBox="0.00 0.00 544.50 460.00" xmlns="http://www.w3.org/2000/svg" xmlns:xlink="http://www.w3.org/1999/xlink">
<g id="graph0" class="graph" transform="scale(1 1) rotate(0) translate(18 442)">
<title>G</title>
<!-- admitted -->
<g id="node1" class="node">
<title>admitted</title>
<path fill="#13202c" stroke="#446074" d="M373.5,-424C373.5,-424 230.5,-424 230.5,-424 224.5,-424 218.5,-418 218.5,-412 218.5,-412 218.5,-398 218.5,-398 218.5,-392 224.5,-386 230.5,-386 230.5,-386 373.5,-386 373.5,-386 379.5,-386 385.5,-392 385.5,-398 385.5,-398 385.5,-412 385.5,-412 385.5,-418 379.5,-424 373.5,-424"/>
<text text-anchor="middle" x="302" y="-408.2" font-family="Arial" font-size="11.00" fill="#e9f1f5">Admitted inputs</text>
<text text-anchor="middle" x="302" y="-396.2" font-family="Arial" font-size="11.00" fill="#e9f1f5">claims + semantic dimensions</text>
</g>
<!-- discrepancy -->
<g id="node2" class="node">
<title>discrepancy</title>
<path fill="#13202c" stroke="#446074" d="M255.5,-346C255.5,-346 74.5,-346 74.5,-346 68.5,-346 62.5,-340 62.5,-334 62.5,-334 62.5,-320 62.5,-320 62.5,-314 68.5,-308 74.5,-308 74.5,-308 255.5,-308 255.5,-308 261.5,-308 267.5,-314 267.5,-320 267.5,-320 267.5,-334 267.5,-334 267.5,-340 261.5,-346 255.5,-346"/>
<text text-anchor="middle" x="165" y="-330.2" font-family="Arial" font-size="11.00" fill="#e9f1f5">Candidate discrepancy</text>
<text text-anchor="middle" x="165" y="-318.2" font-family="Arial" font-size="11.00" fill="#e9f1f5">comparison proposal; no truth change</text>
</g>
<!-- admitted&#45;&gt;discrepancy -->
<g id="edge1" class="edge">
<title>admitted&#45;&gt;discrepancy</title>
<path fill="none" stroke="#73bfd6" stroke-width="1.4" d="M269.53,-385.99C249.88,-375.09 224.71,-361.12 203.99,-349.63"/>
<polygon fill="#73bfd6" stroke="#73bfd6" stroke-width="1.4" points="205.02,-347.4 197.71,-346.15 202.64,-351.68 205.02,-347.4"/>
</g>
<!-- derivation -->
<g id="node3" class="node">
<title>derivation</title>
<path fill="#13202c" stroke="#446074" d="M378.5,-268C378.5,-268 225.5,-268 225.5,-268 219.5,-268 213.5,-262 213.5,-256 213.5,-256 213.5,-242 213.5,-242 213.5,-236 219.5,-230 225.5,-230 225.5,-230 378.5,-230 378.5,-230 384.5,-230 390.5,-236 390.5,-242 390.5,-242 390.5,-256 390.5,-256 390.5,-262 384.5,-268 378.5,-268"/>
<text text-anchor="middle" x="302" y="-252.2" font-family="Arial" font-size="11.00" fill="#e9f1f5">Deterministic derivation</text>
<text text-anchor="middle" x="302" y="-240.2" font-family="Arial" font-size="11.00" fill="#e9f1f5">formula + inputs + method hash</text>
</g>
<!-- admitted&#45;&gt;derivation -->
<g id="edge2" class="edge">
<title>admitted&#45;&gt;derivation</title>
<path fill="none" stroke="#73bfd6" stroke-width="1.4" d="M302,-385.73C302,-358.29 302,-306.35 302,-275.29"/>
<polygon fill="#73bfd6" stroke="#73bfd6" stroke-width="1.4" points="304.45,-275.25 302,-268.25 299.55,-275.25 304.45,-275.25"/>
</g>
<!-- spine -->
<g id="node5" class="node">
<title>spine</title>
<path fill="#13202c" stroke="#446074" d="M496.5,-346C496.5,-346 349.5,-346 349.5,-346 343.5,-346 337.5,-340 337.5,-334 337.5,-334 337.5,-320 337.5,-320 337.5,-314 343.5,-308 349.5,-308 349.5,-308 496.5,-308 496.5,-308 502.5,-308 508.5,-314 508.5,-320 508.5,-320 508.5,-334 508.5,-334 508.5,-340 502.5,-346 496.5,-346"/>
<text text-anchor="middle" x="423" y="-330.2" font-family="Arial" font-size="11.00" fill="#e9f1f5">Spine change proposal</text>
<text text-anchor="middle" x="423" y="-318.2" font-family="Arial" font-size="11.00" fill="#e9f1f5">create / split / merge / promote</text>
</g>
<!-- admitted&#45;&gt;spine -->
<g id="edge4" class="edge">
<title>admitted&#45;&gt;spine</title>
<path fill="none" stroke="#73bfd6" stroke-width="1.4" d="M330.68,-385.99C347.88,-375.18 369.88,-361.36 388.09,-349.92"/>
<polygon fill="#73bfd6" stroke="#73bfd6" stroke-width="1.4" points="389.49,-351.94 394.11,-346.15 386.88,-347.79 389.49,-351.94"/>
</g>
<!-- hypothesis -->
<g id="node4" class="node">
<title>hypothesis</title>
<path fill="#13202c" stroke="#446074" d="M134,-268C134,-268 12,-268 12,-268 6,-268 0,-262 0,-256 0,-256 0,-242 0,-242 0,-236 6,-230 12,-230 12,-230 134,-230 134,-230 140,-230 146,-236 146,-242 146,-242 146,-256 146,-256 146,-262 140,-268 134,-268"/>
<text text-anchor="middle" x="73" y="-252.2" font-family="Arial" font-size="11.00" fill="#e9f1f5">AI hypothesis</text>
<text text-anchor="middle" x="73" y="-240.2" font-family="Arial" font-size="11.00" fill="#e9f1f5">explanation proposal only</text>
</g>
<!-- discrepancy&#45;&gt;hypothesis -->
<g id="edge3" class="edge">
<title>discrepancy&#45;&gt;hypothesis</title>
<path fill="none" stroke="#73bfd6" stroke-width="1.4" d="M143.2,-307.99C130.46,-297.47 114.26,-284.08 100.63,-272.82"/>
<polygon fill="#73bfd6" stroke="#73bfd6" stroke-width="1.4" points="101.92,-270.71 94.97,-268.15 98.8,-274.49 101.92,-270.71"/>
</g>
<!-- review -->
<g id="node6" class="node">
<title>review</title>
<path fill="#13202c" stroke="#446074" d="M313.5,-190C313.5,-190 168.5,-190 168.5,-190 162.5,-190 156.5,-184 156.5,-178 156.5,-178 156.5,-166 156.5,-166 156.5,-160 162.5,-154 168.5,-154 168.5,-154 313.5,-154 313.5,-154 319.5,-154 325.5,-160 325.5,-166 325.5,-166 325.5,-178 325.5,-178 325.5,-184 319.5,-190 313.5,-190"/>
<text text-anchor="middle" x="241" y="-169.2" font-family="Arial" font-size="11.00" fill="#e9f1f5">Professional / authority review</text>
</g>
<!-- discrepancy&#45;&gt;review -->
<g id="edge5" class="edge">
<title>discrepancy&#45;&gt;review</title>
<path fill="none" stroke="#73bfd6" stroke-width="1.4" d="M170.91,-307.81C177.6,-288.12 189.36,-256.04 203,-230 209.03,-218.48 216.84,-206.41 223.81,-196.35"/>
<polygon fill="#73bfd6" stroke="#73bfd6" stroke-width="1.4" points="225.99,-197.51 228.02,-190.38 221.98,-194.69 225.99,-197.51"/>
</g>
<!-- derivation&#45;&gt;review -->
<g id="edge6" class="edge">
<title>derivation&#45;&gt;review</title>
<path fill="none" stroke="#73bfd6" stroke-width="1.4" d="M287.23,-229.84C278.89,-219.58 268.37,-206.66 259.48,-195.73"/>
<polygon fill="#73bfd6" stroke="#73bfd6" stroke-width="1.4" points="261.32,-194.1 255,-190.22 257.52,-197.19 261.32,-194.1"/>
</g>
<!-- hypothesis&#45;&gt;review -->
<g id="edge7" class="edge">
<title>hypothesis&#45;&gt;review</title>
<path fill="none" stroke="#73bfd6" stroke-width="1.4" d="M113.67,-229.84C138.54,-218.74 170.39,-204.52 196.01,-193.08"/>
<polygon fill="#73bfd6" stroke="#73bfd6" stroke-width="1.4" points="197.33,-195.18 202.72,-190.09 195.33,-190.7 197.33,-195.18"/>
</g>
<!-- spine&#45;&gt;review -->
<g id="edge8" class="edge">
<title>spine&#45;&gt;review</title>
<path fill="none" stroke="#73bfd6" stroke-width="1.4" d="M423.98,-307.76C424.12,-286.53 421.08,-251.62 402,-230 383.99,-209.59 358.2,-196.49 332.52,-188.08"/>
<polygon fill="#73bfd6" stroke="#73bfd6" stroke-width="1.4" points="333.05,-185.68 325.64,-185.93 331.59,-190.36 333.05,-185.68"/>
</g>
<!-- event -->
<g id="node7" class="node">
<title>event</title>
<path fill="#13202c" stroke="#446074" d="M277.5,-114C277.5,-114 204.5,-114 204.5,-114 198.5,-114 192.5,-108 192.5,-102 192.5,-102 192.5,-90 192.5,-90 192.5,-84 198.5,-78 204.5,-78 204.5,-78 277.5,-78 277.5,-78 283.5,-78 289.5,-84 289.5,-90 289.5,-90 289.5,-102 289.5,-102 289.5,-108 283.5,-114 277.5,-114"/>
<text text-anchor="middle" x="241" y="-93.2" font-family="Arial" font-size="11.00" fill="#e9f1f5">Admitted event</text>
</g>
<!-- review&#45;&gt;event -->
<g id="edge9" class="edge">
<title>review&#45;&gt;event</title>
<path fill="none" stroke="#73bfd6" stroke-width="1.4" d="M241,-153.84C241,-144.12 241,-131.82 241,-121.15"/>
<polygon fill="#73bfd6" stroke="#73bfd6" stroke-width="1.4" points="243.45,-121.07 241,-114.07 238.55,-121.07 243.45,-121.07"/>
</g>
<!-- engine -->
<g id="node8" class="node">
<title>engine</title>
<path fill="#13202c" stroke="#446074" d="M307.5,-38C307.5,-38 174.5,-38 174.5,-38 168.5,-38 162.5,-32 162.5,-26 162.5,-26 162.5,-12 162.5,-12 162.5,-6 168.5,0 174.5,0 174.5,0 307.5,0 307.5,0 313.5,0 319.5,-6 319.5,-12 319.5,-12 319.5,-26 319.5,-26 319.5,-32 313.5,-38 307.5,-38"/>
<text text-anchor="middle" x="241" y="-22.2" font-family="Arial" font-size="11.00" fill="#e9f1f5">Transition Engine</text>
<text text-anchor="middle" x="241" y="-10.2" font-family="Arial" font-size="11.00" fill="#e9f1f5">deterministic consequences</text>
</g>
<!-- event&#45;&gt;engine -->
<g id="edge10" class="edge">
<title>event&#45;&gt;engine</title>
<path fill="none" stroke="#73bfd6" stroke-width="1.4" d="M241,-77.98C241,-68.36 241,-56.14 241,-45.41"/>
<polygon fill="#73bfd6" stroke="#73bfd6" stroke-width="1.4" points="243.45,-45.26 241,-38.26 238.55,-45.26 243.45,-45.26"/>
</g>
</g>
</svg>
